<?xml version="1.0" encoding="utf-8"?>
<!-- Generator: Adobe Illustrator 22.0.0, SVG Export Plug-In . SVG Version: 6.00 Build 0)  -->
<svg version="1.1" id="Layer_1" xmlns="http://www.w3.org/2000/svg" xmlns:xlink="http://www.w3.org/1999/xlink" x="0px" y="0px"
	 viewBox="0 0 360 360" style="enable-background:new 0 0 360 360;" xml:space="preserve">
<style type="text/css">
	.st0{fill:#444444;}
</style>
<g>
	<path class="st0" d="M180,33c39.3,0,76.2,15.3,103.9,43.1C311.7,103.8,327,140.8,327,180s-15.3,76.2-43.1,103.9
		C256.2,311.7,219.3,327,180,327S103.8,311.7,76.1,284C48.3,256.2,33,219.3,33,180s15.3-76.2,43.1-103.9S140.7,33,180,33 M180,27
		C95.5,27,27,95.5,27,180s68.5,153,153,153s153-68.5,153-153S264.5,27,180,27L180,27z"/>
</g>
<g>
	<g>
		<path class="st0" d="M143.1,273.9c0-11.1-0.1-21.9,0-32.8c0-2.5-0.5-4-2.5-5.5c-4.7-3.5-7.2-9-7.8-15.5c-0.4-3.9-0.3-7.8-0.3-11.7
			c0-25.1,0-50.1,0-75.2c0-2.4,0.2-5.1,1.2-7.1c1.7-3.7,4.8-4.8,8.3-3.8c3.2,0.9,5.5,4.4,5.6,8.7c0.1,7.1,0,14.2,0,21.3
			c0,1.4,0,2.8,0,4.4c1.3,0,2.2,0,3.5,0c0-2.5,0-4.7,0-7c0-13.2,0-26.4,0-39.6c0-6.8,2.8-10.6,7.4-10.6c4.5,0,7.5,4.2,7.5,10.6
			c0,14.1,0,28.1,0,42.2c0,1.4,0,2.8,0,4.4c1.3,0,2.4,0,3.7,0c0-8.4,0-16.7,0-24.9c0-11.6,0-23.2,0-34.8c0-6.7,2.7-10.6,7.4-10.7
			c4.9-0.1,7.8,3.7,7.9,10.6c0.1,18.4,0.1,36.8,0.1,55.2c0,1.4,0,2.9,0,4.2c3.3,1.5,3.4-0.6,3.4-3.2c0-16.8,0-33.6,0-50.4
			c0-6,2.5-9.8,6.6-10.2c5-0.6,8.5,3.3,8.5,9.7c0.1,15.5,0,31,0,46.5c0,10.4,0,20.8,0,31.1c-21.7,3.8-34.3,16.5-33,33.3c1,0,2,0,3,0
			c0.2-0.4,0.4-0.6,0.4-0.8c1-12.2,8.4-21.9,19.6-25.7c1.2-0.4,2.4-1,3.6-0.9c5.6,0.3,9.2-3.3,12.6-7.9c6.3-8.3,12.9-16.3,19.4-24.4
			c3.1-3.8,6.8-4.5,10.4-2.4c3.4,2,5.2,6,4.6,10.8c-0.2,1.6-0.9,3.3-1.7,4.7c-6.8,12.4-13.7,24.7-20.5,37.1c-1.3,2.4-2.4,5-3.4,7.6
			c-4.2,10.9-11.4,17.9-20.4,22.7c-2.2,1.2-2.8,2.5-2.8,5.2c0.1,11.6,0,23.2,0,35.1C178.1,273.9,160.9,273.9,143.1,273.9z"/>
	</g>
</g>
</svg>
